<svg xmlns="http://www.w3.org/2000/svg" viewBox="0 0 24 24" width="24" height="24" fill="currentColor" aria-hidden="true">
  <path d="M12 2.16c3.2 0 3.58.01 4.85.07 3.25.15 4.77 1.69 4.92 4.92.06 1.27.07 1.64.07 4.85 0 3.2-.01 3.58-.07 4.85-.15 3.23-1.66 4.77-4.92 4.92-1.27.06-1.64.07-4.85.07-3.2 0-3.58-.01-4.85-.07-3.26-.15-4.77-1.7-4.92-4.92-.06-1.27-.07-1.64-.07-4.85 0-3.2.01-3.58.07-4.85.15-3.23 1.66-4.77 4.92-4.92C8.42 2.17 8.8 2.16 12 2.16zM12 0C8.74 0 8.33.01 7.05.07 2.7.27.27 2.7.07 7.05.01 8.33 0 8.74 0 12c0 3.26.01 3.67.07 4.95.2 4.35 2.63 6.78 6.98 6.98C8.33 23.99 8.74 24 12 24c3.26 0 3.67-.01 4.95-.07 4.35-.2 6.78-2.63 6.98-6.98.06-1.28.07-1.69.07-4.95 0-3.26-.01-3.67-.07-4.95-.2-4.35-2.63-6.78-6.98-6.98C15.67.01 15.26 0 12 0zm0 5.84A6.16 6.16 0 1018.16 12 6.16 6.16 0 0012 5.84zM12 16a4 4 0 110-8 4 4 0 010 8zm6.41-11.85a1.44 1.44 0 100 2.88 1.44 1.44 0 000-2.88z"/>
</svg>
