<svg xmlns="http://www.w3.org/2000/svg" viewBox="0 0 24 24" width="24" height="24" fill="currentColor" aria-hidden="true">
  <path d="M17.47 14.39c-.3-.15-1.77-.87-2.04-.97-.27-.1-.47-.15-.67.15s-.77.97-.94 1.17c-.17.2-.35.22-.65.07-.3-.15-1.26-.46-2.4-1.48-.89-.79-1.49-1.77-1.66-2.07-.17-.3-.02-.46.13-.61.14-.14.3-.35.45-.52.15-.17.2-.3.3-.5.1-.2.05-.37-.02-.52-.07-.15-.67-1.62-.92-2.22-.24-.58-.49-.5-.67-.51l-.57-.01c-.2 0-.52.07-.79.37-.27.3-1.04 1.02-1.04 2.48s1.07 2.88 1.21 3.08c.15.2 2.1 3.2 5.08 4.49.71.3 1.26.49 1.69.62.71.23 1.36.2 1.87.12.57-.08 1.77-.72 2.02-1.42.25-.7.25-1.29.17-1.42-.07-.12-.27-.2-.57-.35zM12.05 21.5c-1.78 0-3.52-.48-5.03-1.39l-.36-.21-3.73.98.99-3.64-.24-.37A9.42 9.42 0 012.55 12c0-5.23 4.25-9.48 9.5-9.48 2.54 0 4.93.99 6.72 2.78a9.44 9.44 0 012.78 6.72c0 5.23-4.25 9.48-9.5 9.48zM12.05 0C5.42 0 0 5.42 0 12.05c0 2.14.57 4.22 1.64 6.05L0 24l6.07-1.59a12.04 12.04 0 005.98 1.59c6.63 0 12.05-5.42 12.05-12.05S18.68 0 12.05 0z"/>
</svg>
